<svg width="21" height="21" viewBox="0 0 21 21" fill="none" xmlns="http://www.w3.org/2000/svg">
<path d="M1.43625 0.56298C0.983034 0.685153 0.604694 0.996495 0.387937 1.43789L0.273646 1.66253L0.261823 2.57685L0.25 3.49512H8.15573H16.0615L16.0496 2.57685L16.0378 1.66253L15.9235 1.43395C15.7895 1.16202 15.5137 0.8625 15.2693 0.724563C14.9225 0.52357 14.7255 0.499924 13.4486 0.499924H12.2741V1.11079C12.2741 1.70982 12.2702 1.72559 12.1756 1.82017C12.1165 1.88323 12.0337 1.9187 11.9588 1.9187C11.884 1.9187 11.8012 1.88323 11.7421 1.82017C11.6475 1.72559 11.6436 1.70982 11.6436 1.11079V0.499924H8.15573H4.66791V1.11079C4.66791 1.72559 4.66791 1.72559 4.56544 1.82017C4.42751 1.94629 4.25804 1.94629 4.13587 1.82017C4.04128 1.72559 4.03734 1.70982 4.03734 1.11079V0.499924L2.84715 0.503865C1.92494 0.503865 1.60178 0.519629 1.43625 0.56298Z" fill="white"/>
<path d="M0.261285 9.94626L0.273108 15.7711L0.383457 16.0036C0.596274 16.4647 0.92338 16.7524 1.40025 16.8983C1.62883 16.9692 1.83376 16.9731 6.23197 16.9731H10.8233L10.7957 16.8273C10.5001 15.2824 10.9021 13.7375 11.9228 12.504C12.8372 11.4005 14.1574 10.7384 15.6353 10.6438L16.057 10.6162V7.37276V4.12534H8.1552H0.253403L0.261285 9.94626ZM11.6588 8.73242C11.8243 8.89006 11.7849 9.13047 11.576 9.24082C11.513 9.27629 10.4922 9.28811 7.64286 9.28811H3.79246L3.67817 9.17382C3.61511 9.11076 3.56388 9.028 3.56388 8.99253C3.56388 8.85854 3.68211 8.69695 3.81217 8.66148C3.88705 8.63784 5.45164 8.62601 7.74927 8.62996L11.5563 8.63784L11.6588 8.73242ZM8.62812 11.9089C8.69118 11.968 8.72665 12.0508 8.72665 12.1257C8.72665 12.2005 8.69118 12.2833 8.62812 12.3424L8.53354 12.4409H6.15709C3.64664 12.437 3.7097 12.4409 3.61117 12.2557C3.54023 12.1217 3.556 12.0508 3.67817 11.9247L3.79246 11.8104H6.16497H8.53354L8.62812 11.9089Z" fill="white"/>
<path d="M15.0173 11.3548C14.1148 11.5439 13.3306 11.9617 12.6842 12.612C10.9305 14.3657 10.8871 17.1678 12.5896 18.957C13.8902 20.3285 15.8607 20.7542 17.6223 20.0448C18.1702 19.8241 18.6155 19.5285 19.0766 19.0792C19.6993 18.4683 20.0619 17.8496 20.3023 16.9865C20.4047 16.62 20.4126 16.5491 20.4087 15.8278C20.4087 15.1224 20.4008 15.0278 20.3023 14.6692C20.0894 13.881 19.6008 13.0534 19.0372 12.5292C18.4973 12.0247 17.7879 11.6267 17.0824 11.4296C16.7553 11.339 16.6134 11.3232 15.9986 11.3114C15.4902 11.3035 15.2144 11.3154 15.0173 11.3548ZM18.7298 14.2357C18.8165 14.3342 18.8362 14.4288 18.7928 14.5431C18.781 14.5746 18.2174 15.1303 17.5435 15.7766C16.8696 16.4229 16.109 17.152 15.8528 17.3924C15.4548 17.7747 15.372 17.8378 15.2577 17.8378C15.1434 17.8378 15.0331 17.7393 14.1148 16.821C13.2241 15.9264 13.102 15.7884 13.102 15.682C13.102 15.5402 13.2872 15.3549 13.4291 15.3549C13.4843 15.3549 13.7917 15.6308 14.3631 16.2022C14.8281 16.6673 15.2341 17.0496 15.2577 17.0496C15.2814 17.0496 15.9789 16.3993 16.8105 15.6071C17.6421 14.8111 18.3593 14.149 18.4027 14.1332C18.513 14.0859 18.6234 14.1214 18.7298 14.2357Z" fill="white"/>
</svg>
