<svg width="24" height="24" viewBox="0 0 24 24" fill="none" xmlns="http://www.w3.org/2000/svg">
<path d="M10.8019 0.0142803C7.64918 0.352438 4.79248 1.86006 2.78152 4.25534C1.36727 5.93674 0.488645 7.84357 0.0986688 10.0792C0.00939702 10.5911 0 10.84 0 12.0048C0 13.1696 0.00939702 13.4185 0.0986688 13.9304C0.540329 16.4666 1.60219 18.566 3.35474 20.3836C5.15427 22.2529 7.42365 23.4364 10.0736 23.9014C10.5857 23.9906 10.8348 24 12 24C13.4706 24 13.9123 23.953 15.0681 23.6571C19.2122 22.5863 22.5857 19.2141 23.657 15.0717C23.953 13.9163 24 13.4748 24 12.0048C24 10.5347 23.953 10.0933 23.657 8.93789C22.5857 4.80015 19.2122 1.42327 15.0681 0.352438C14.0016 0.0800323 13.4988 0.0189762 12.1879 0.00488663C11.5301 -0.00450706 10.9052 0.000190735 10.8019 0.0142803ZM14.3868 6.11051C14.4808 6.15278 14.6124 6.23263 14.6735 6.28899C14.9366 6.53321 15.0352 7.03575 14.8849 7.39269C14.8379 7.51011 14.1096 8.27097 12.5967 9.78328L10.379 12.0048L12.5967 14.2216C14.1096 15.7386 14.8379 16.4995 14.8849 16.6169C15.0352 16.9738 14.9366 17.4764 14.6735 17.7206C14.4103 17.9601 13.9499 18.04 13.6069 17.8991C13.3861 17.8051 8.33986 12.7844 8.15662 12.4745C8.06265 12.3148 8.02976 12.2021 8.02976 12.0048C8.02976 11.8075 8.06265 11.6948 8.15662 11.5351C8.33046 11.2439 13.3861 6.20445 13.5975 6.11521C13.8136 6.02128 14.166 6.02128 14.3868 6.11051Z" fill="white"/>
</svg>
