<svg width="18" height="17" viewBox="0 0 18 17" fill="none" xmlns="http://www.w3.org/2000/svg">
<path d="M1.00785 0.0597339C0.535537 0.227089 0.159917 0.665932 0.0409091 1.19403C0.018595 1.28701 0 1.87833 0 2.53659V3.71924H8.96653H17.9293L17.9182 2.4994L17.907 1.28329L17.7992 1.06015C17.6541 0.766346 17.2711 0.390726 16.9587 0.230808C16.5347 0.0188248 16.412 0.000229836 15.3149 0.000229836H14.3219L14.3107 0.93742C14.2996 1.81139 14.2959 1.88577 14.2252 1.97874C14.1471 2.09031 13.8942 2.23163 13.7789 2.23163C13.6636 2.23163 13.4107 2.09031 13.3326 1.97874C13.262 1.88577 13.2583 1.81139 13.2471 0.93742L13.236 0.000229836H8.73967H4.23967V0.896511C4.23967 1.75188 4.23595 1.80023 4.15785 1.93783C4.05744 2.11635 3.80826 2.25023 3.63719 2.21676C3.45868 2.18329 3.2876 2.05684 3.22066 1.91924C3.17231 1.81511 3.16116 1.64403 3.16116 0.896511V0.000229836H2.16818C1.3686 0.00394869 1.13802 0.0151057 1.00785 0.0597339Z" fill="#939393"/>
<path d="M0 10.1802C0 14.4943 0.011157 15.5244 0.0520661 15.6769C0.174793 16.1418 0.45 16.4839 0.847934 16.6736L1.09711 16.7926L8.73967 16.8038C15.6496 16.8112 16.4008 16.8075 16.5868 16.7517C17.2227 16.5695 17.736 16.1083 17.9219 15.5542C18 15.3273 18 15.2827 18 10.0984V4.8732H9H0V10.1802ZM5.1843 7.00791C5.25124 7.03394 5.3405 7.1046 5.38512 7.16039C5.46322 7.25708 5.46694 7.29799 5.46694 8.06039C5.46694 8.94179 5.45207 9.01989 5.23264 9.15006C5.12479 9.217 5.04298 9.22444 4.33264 9.22444C3.49215 9.22444 3.43264 9.21328 3.29504 9.02733C3.22066 8.92692 3.21694 8.87485 3.21694 8.09014C3.21694 6.92981 3.18719 6.95956 4.3438 6.95956C4.8719 6.95584 5.09132 6.97072 5.1843 7.00791ZM9.6062 7.00791C9.67314 7.03394 9.75868 7.09345 9.79959 7.1418C9.87025 7.21989 9.87397 7.27568 9.87397 8.11246V9.0013L9.76983 9.10171L9.66942 9.20584H8.78058H7.89174L7.79504 9.11659C7.63884 8.96783 7.61653 8.82279 7.6314 8.00832C7.64628 6.94097 7.62769 6.95956 8.76942 6.95956C9.2938 6.95584 9.51694 6.97072 9.6062 7.00791ZM14.1211 7.01535C14.3628 7.13436 14.374 7.17527 14.374 8.07155C14.374 8.51039 14.3628 8.91948 14.3442 8.97527C14.3293 9.03105 14.2624 9.10915 14.1955 9.15006C14.0876 9.217 14.0058 9.22444 13.2657 9.22444C12.0756 9.22444 12.124 9.27279 12.124 8.07898C12.124 7.29799 12.1277 7.25708 12.2058 7.16039C12.3471 6.97816 12.4512 6.95956 13.2508 6.95584C13.8645 6.95584 14.0132 6.967 14.1211 7.01535ZM5.2438 12.0695C5.45579 12.1773 5.47066 12.2666 5.4595 13.1591C5.44463 14.3009 5.48182 14.2637 4.29545 14.2637C3.5405 14.2637 3.51074 14.26 3.39545 14.1782C3.21694 14.0517 3.19091 13.8992 3.20579 13.0513C3.21694 12.3744 3.22438 12.3075 3.29504 12.2108C3.43264 12.0249 3.49215 12.0137 4.3438 12.0137C4.97975 12.0137 5.15826 12.0249 5.2438 12.0695ZM9.66942 12.0695C9.87397 12.1773 9.89256 12.2629 9.89256 13.1554C9.89256 14.3269 9.92975 14.2972 8.68017 14.2749C7.60909 14.26 7.62769 14.2786 7.62769 13.1368C7.62397 12.3521 7.64628 12.2368 7.82851 12.0955C7.92893 12.0174 7.96612 12.0137 8.74711 12.0137C9.40165 12.0137 9.58388 12.0249 9.66942 12.0695ZM14.1285 12.062C14.1769 12.0844 14.255 12.155 14.2959 12.2108C14.3702 12.3112 14.374 12.3633 14.374 13.148C14.374 14.3083 14.4037 14.2786 13.2471 14.2786C12.4624 14.2823 12.3471 14.26 12.2058 14.0777C12.1277 13.9773 12.124 13.9401 12.124 13.1591C12.124 11.9691 12.0756 12.0174 13.2397 12.0174C13.8012 12.0137 14.0653 12.0286 14.1285 12.062Z" fill="#939393"/>
</svg>
