<svg width="15" height="15" viewBox="0 0 15 15" fill="none" xmlns="http://www.w3.org/2000/svg">
<circle cx="7.5" cy="7.5" r="7.5" fill="#F75676"/>
<path fill-rule="evenodd" clip-rule="evenodd" d="M10.8673 4.77272C10.9093 4.73074 10.9427 4.68089 10.9655 4.62602C10.9882 4.57115 11 4.51233 11 4.45293C11 4.39352 10.9884 4.33469 10.9657 4.27979C10.943 4.22489 10.9097 4.175 10.8677 4.13297C10.8257 4.09094 10.7759 4.05759 10.721 4.03482C10.6661 4.01205 10.6073 4.00031 10.5479 4.00028C10.4885 4.00024 10.4297 4.01191 10.3748 4.03461C10.3199 4.05731 10.27 4.0906 10.228 4.13258L7.49994 6.86065L4.77271 4.13258C4.68782 4.04769 4.57269 4 4.45264 4C4.33259 4 4.21746 4.04769 4.13258 4.13258C4.04769 4.21747 4 4.3326 4 4.45265C4 4.5727 4.04769 4.68783 4.13258 4.77272L6.8606 7.5L4.13258 10.2273C4.09054 10.2693 4.0572 10.3192 4.03446 10.3741C4.01171 10.429 4 10.4879 4 10.5474C4 10.6068 4.01171 10.6657 4.03446 10.7206C4.0572 10.7755 4.09054 10.8254 4.13258 10.8674C4.21746 10.9523 4.33259 11 4.45264 11C4.51208 11 4.57094 10.9883 4.62586 10.9655C4.68078 10.9428 4.73067 10.9095 4.77271 10.8674L7.49994 8.13935L10.228 10.8674C10.3129 10.9522 10.4279 10.9998 10.5479 10.9997C10.6679 10.9996 10.7829 10.9519 10.8677 10.867C10.9525 10.7821 11.0001 10.667 11 10.5471C10.9999 10.4271 10.9522 10.3121 10.8673 10.2273L8.13929 7.5L10.8673 4.77272Z" fill="white"/>
</svg>
