<svg width="22" height="22" viewBox="0 0 22 22" fill="none" xmlns="http://www.w3.org/2000/svg">
<path d="M5.57251 10.997C5.57251 11.2079 5.65085 11.3887 5.80149 11.5393C5.95214 11.69 6.13292 11.7683 6.34383 11.7683C6.55473 11.7683 6.73551 11.69 6.88616 11.5393C7.03681 11.3887 7.10912 11.2079 7.10912 10.997C7.10912 10.7861 7.03681 10.6053 6.88616 10.4546C6.73551 10.304 6.55473 10.2317 6.34383 10.2317C6.13292 10.2317 5.95214 10.304 5.80149 10.4546C5.65085 10.6053 5.57251 10.7861 5.57251 10.997Z" fill="#0E8799" stroke="#343434" stroke-width="1.50072" stroke-linecap="round" stroke-linejoin="round"/>
<path d="M10.1889 10.997C10.1889 11.2079 10.2672 11.3887 10.4179 11.5393C10.5685 11.69 10.7493 11.7683 10.9602 11.7683C11.1711 11.7683 11.3519 11.69 11.5026 11.5393C11.6532 11.3887 11.7255 11.2079 11.7255 10.997C11.7255 10.7861 11.6532 10.6053 11.5026 10.4546C11.3519 10.304 11.1711 10.2317 10.9602 10.2317C10.7493 10.2317 10.5685 10.304 10.4179 10.4546C10.2672 10.6053 10.1889 10.7861 10.1889 10.997Z" fill="#0E8799" stroke="#343434" stroke-width="1.50072" stroke-linecap="round" stroke-linejoin="round"/>
<path d="M14.8048 10.997C14.8048 11.2079 14.8771 11.3887 15.0278 11.5393C15.1784 11.69 15.3592 11.7683 15.5761 11.7683C15.787 11.7683 15.9678 11.69 16.1185 11.5393C16.2691 11.3887 16.3414 11.2079 16.3414 10.997C16.3414 10.7861 16.2691 10.6053 16.1185 10.4546C15.9678 10.304 15.787 10.2317 15.5761 10.2317C15.3592 10.2317 15.1784 10.304 15.0278 10.4546C14.8771 10.6053 14.8048 10.7861 14.8048 10.997Z" fill="#0E8799" stroke="#343434" stroke-width="1.50072" stroke-linecap="round" stroke-linejoin="round"/>
<path d="M11.002 1C10.0981 1 9.20631 1.12052 8.33858 1.36155C7.46482 1.60259 6.63927 1.95812 5.86193 2.42211C5.09061 2.88611 4.39161 3.44652 3.76491 4.09732C3.13822 4.75414 2.61396 5.48328 2.18612 6.2787C1.75829 7.07412 1.44494 7.91172 1.24608 8.79753C1.04723 9.67731 0.968892 10.5691 1.01107 11.473C1.05325 12.3769 1.21595 13.2627 1.49917 14.1184C1.78239 14.9801 2.17407 15.7816 2.67422 16.5348L1.00505 21L6.62119 19.9756C7.2961 20.307 8.00113 20.5601 8.73629 20.7349C9.46543 20.9036 10.2126 20.994 10.9598 21C11.7131 21 12.4603 20.9217 13.1955 20.759C13.9306 20.5963 14.6357 20.3492 15.3166 20.0298C15.9975 19.7044 16.6302 19.3067 17.2208 18.8427C17.8113 18.3727 18.3416 17.8484 18.8176 17.2639C19.2877 16.6734 19.6854 16.0407 20.0168 15.3658C20.3422 14.6848 20.5953 13.9798 20.764 13.2507C20.9327 12.5155 21.0171 11.7743 21.0171 11.0211C21.0231 10.2679 20.9388 9.52064 20.77 8.78548C20.6073 8.05634 20.3603 7.34529 20.0349 6.67038C19.7034 5.98945 19.3057 5.35673 18.8417 4.7662C18.3717 4.18168 17.8414 3.6514 17.2509 3.18138C16.6604 2.71136 16.0276 2.31365 15.3527 1.98825C14.6718 1.66285 13.9668 1.41579 13.2316 1.24706C12.4965 1.08436 11.7553 1 11.002 1Z" stroke="#343434" stroke-width="1.50072" stroke-linecap="round" stroke-linejoin="round"/>
</svg>
