<svg width="17" height="17" viewBox="0 0 17 17" fill="none" xmlns="http://www.w3.org/2000/svg">
<path d="M7.4194 0.0450115C5.88557 0.244211 4.47126 0.835165 3.25283 1.78468C2.85776 2.09011 2.2004 2.73751 1.88169 3.13258C0.962054 4.27133 0.357819 5.60928 0.0988613 7.07007C0.00590217 7.58799 -0.0306175 8.83297 0.029142 9.40069C0.23166 11.2964 1.04173 13.0228 2.37304 14.4006C3.58151 15.6489 5.09874 16.4921 6.74544 16.8308C7.85431 17.0565 9.17898 17.0532 10.2746 16.8241C13.5248 16.1435 16.121 13.554 16.8282 10.2838C17.0573 9.21477 17.0573 7.7739 16.8282 6.70487C16.0646 3.16911 13.1364 0.489889 9.56078 0.0450115C9.05614 -0.0147476 7.89747 -0.0147476 7.4194 0.0450115ZM8.75734 3.1193C8.84366 3.16246 8.93662 3.24546 8.98974 3.32514L9.07938 3.46126L9.08934 5.84168L9.0993 8.22542L10.5402 9.37745C12.0873 10.6158 12.1172 10.6457 12.1172 10.9378C12.1172 11.1935 11.8914 11.4524 11.6291 11.5022C11.3901 11.5487 11.3071 11.4923 9.6803 10.1908C8.8171 9.50029 8.08007 8.89605 8.04023 8.84293C8.00039 8.79313 7.95059 8.69686 7.93067 8.63046C7.90743 8.55078 7.90079 7.68427 7.90743 5.98444L7.91739 3.46126L8.00703 3.32514C8.10663 3.17242 8.32575 3.04959 8.49507 3.04959C8.55815 3.04959 8.67435 3.08279 8.75734 3.1193Z" fill="#939393"/>
</svg>
