<svg width="18" height="17" viewBox="0 0 18 17" fill="none" xmlns="http://www.w3.org/2000/svg">
<path d="M0.956511 0.602621C0.583753 0.683688 0.203962 1.02638 0.0738483 1.39855C0 1.60122 0 1.6307 0 8.45136C0 15.272 0 15.3015 0.0738483 15.5042C0.172313 15.7879 0.411441 16.0495 0.696284 16.1969C0.907279 16.3075 0.960028 16.3185 1.2308 16.3148C1.44883 16.3112 1.57191 16.2927 1.68796 16.2375C1.77588 16.1969 3.13679 15.0915 4.71222 13.7797L7.57824 11.3919L7.59582 13.378C7.60989 15.1467 7.62044 15.3752 7.67319 15.5005C7.96858 16.1785 8.6719 16.4954 9.3084 16.2338C9.50885 16.149 17.3157 9.64894 17.6216 9.30993C17.9135 8.98198 17.9803 8.83827 17.9979 8.48084C18.0155 8.09761 17.9276 7.89863 17.5794 7.5412C17.2348 7.18746 9.5194 0.764754 9.3295 0.672633C8.85125 0.440488 8.16199 0.639469 7.84902 1.09639C7.60286 1.45382 7.61692 1.33591 7.59582 3.52471L7.57824 5.51085L4.68058 3.09727C2.60227 1.36907 1.74071 0.672633 1.63873 0.639469C1.44532 0.576827 1.13937 0.562088 0.956511 0.602621Z" fill="white"/>
</svg>
