<svg width="41" height="41" viewBox="0 0 41 41" fill="none" xmlns="http://www.w3.org/2000/svg">
<g filter="url(#filter0_d_422_299)">
<circle cx="20.5" cy="18.5" r="12.5" fill="white"/>
</g>
<path d="M25.8529 15.4143L25.012 24.1737C24.9851 24.421 24.8754 24.6491 24.7036 24.8145C24.5318 24.98 24.3099 25.0714 24.08 25.0714H17.3025C17.0726 25.0714 16.8507 24.98 16.6789 24.8145C16.5071 24.6491 16.3973 24.421 16.3705 24.1737L15.5293 15.4143" stroke="#E91A16" stroke-width="1.5" stroke-linecap="round" stroke-linejoin="round"/>
<path d="M26.5357 13H14.4643C14.2079 13 14 13.2162 14 13.4829V14.9314C14 15.1981 14.2079 15.4143 14.4643 15.4143H26.5357C26.7921 15.4143 27 15.1981 27 14.9314V13.4829C27 13.2162 26.7921 13 26.5357 13Z" stroke="#E91A16" stroke-width="1.5" stroke-linecap="round" stroke-linejoin="round"/>
<path d="M22.4118 18.6335L18.9707 21.8526M22.4118 21.8526L18.9707 18.6335" stroke="#E91A16" stroke-width="1.5" stroke-linecap="round" stroke-linejoin="round"/>
<defs>
<filter id="filter0_d_422_299" x="0" y="0" width="41" height="41" filterUnits="userSpaceOnUse" color-interpolation-filters="sRGB">
<feFlood flood-opacity="0" result="BackgroundImageFix"/>
<feColorMatrix in="SourceAlpha" type="matrix" values="0 0 0 0 0 0 0 0 0 0 0 0 0 0 0 0 0 0 127 0" result="hardAlpha"/>
<feOffset dy="2"/>
<feGaussianBlur stdDeviation="4"/>
<feComposite in2="hardAlpha" operator="out"/>
<feColorMatrix type="matrix" values="0 0 0 0 0 0 0 0 0 0 0 0 0 0 0 0 0 0 0.25 0"/>
<feBlend mode="normal" in2="BackgroundImageFix" result="effect1_dropShadow_422_299"/>
<feBlend mode="normal" in="SourceGraphic" in2="effect1_dropShadow_422_299" result="shape"/>
</filter>
</defs>
</svg>
