<svg width="24" height="24" viewBox="0 0 24 24" fill="none" xmlns="http://www.w3.org/2000/svg">
<path d="M12 23C18.0753 23 23 18.0753 23 12C23 5.9247 18.0753 1 12 1C5.9247 1 1 5.9247 1 12C1 18.0753 5.9247 23 12 23Z" stroke="#2B95A5" stroke-width="1.5" stroke-linecap="round" stroke-linejoin="round"/>
<path d="M15.3001 8.14985C14.5466 7.39635 13.22 6.87275 12.0001 6.83975M8.70007 15.2999C9.40847 16.2459 10.7274 16.7849 12.0001 16.83M12.0001 6.83975C10.5481 6.80015 9.25007 7.45685 9.25007 9.24985C9.25007 12.5499 15.3001 10.8999 15.3001 14.1999C15.3001 16.082 13.6897 16.8905 12.0001 16.83M12.0001 6.83975V4.84985M12.0001 16.83V19.1499" stroke="#2B95A5" stroke-width="1.5" stroke-linecap="round" stroke-linejoin="round"/>
</svg>
