<svg width="21" height="20" viewBox="0 0 21 20" fill="none" xmlns="http://www.w3.org/2000/svg">
<path d="M18.7171 4.75498L15.772 1.80371L17.0593 0.513743C19.0682 -1.10848 21.6038 1.4519 19.9849 3.46502L18.7171 4.75498Z" fill="white"/>
<path d="M17.82 5.61438L14.8943 2.64355L8.45788 9.11291C8.12631 9.40609 8.20433 9.367 8.12631 9.75789L7.63868 12.2401C7.56068 12.7092 7.6582 12.9828 8.22381 12.9046L10.7789 12.3965C11.1495 12.3378 11.169 12.2987 11.3835 12.0642L17.82 5.61438Z" fill="white"/>
<path d="M9.72556 5.0285C10.7788 4.91123 10.7008 3.38673 9.72556 3.38673L2.86003 3.36719C1.80679 3.40628 0.617026 4.24671 0.5 5.69303V17.6545C0.597522 18.9054 1.4167 19.7653 2.56746 19.9999H15.0307C16.0645 19.8435 16.9812 19.0422 17.1372 17.7718V10.7161C17.0007 9.93427 15.8304 9.66064 15.4793 10.7161V17.6154C15.4013 18.0649 15.1868 18.2799 14.7382 18.3777H2.93805C2.18204 18.283 2.15787 17.2685 2.15787 16.5066V5.8103C2.23589 5.36077 2.39192 5.14577 2.86003 5.0285H9.72556Z" fill="white"/>
</svg>
