<svg width="21" height="21" viewBox="0 0 21 21" fill="none" xmlns="http://www.w3.org/2000/svg">
<path d="M0.459402 0.105654C0.233803 0.215437 0.123054 0.33742 0.0492217 0.565119C0.0123054 0.666771 0 2.98443 0 9.58366C0 18.3176 0 18.4639 0.0820361 18.6185C0.168174 18.7892 0.365061 18.9722 0.529133 19.0373C0.586558 19.0576 2.61285 19.4683 5.02471 19.9481C9.90586 20.9199 9.80742 20.9077 10.1356 20.6759C10.2299 20.6068 10.353 20.4726 10.4063 20.375C10.4924 20.2124 10.5006 20.1432 10.5006 19.6512V19.1105H12.7197C14.1799 19.1105 14.9962 19.0942 15.1111 19.0657C15.3326 19.0129 15.5623 18.8258 15.6689 18.6185C15.7468 18.468 15.7509 18.3704 15.7509 15.6136C15.7509 12.8568 15.7468 12.7593 15.6689 12.6088C15.5048 12.2835 15.0823 12.0721 14.7337 12.1371C14.504 12.1778 14.2456 12.3445 14.1184 12.5356L14.0077 12.7064L13.9954 15.0119L13.9831 17.3214H12.2439H10.5006L10.4924 10.2342L10.4801 3.14707L10.3653 2.97223C10.3037 2.87871 10.1971 2.76893 10.1315 2.72827C10.0658 2.6876 9.34802 2.45991 8.54406 2.22001C7.73601 1.97604 7.06741 1.77274 7.05921 1.76461C7.05101 1.75648 8.60559 1.74834 10.5129 1.74834H13.9872V4.01314C13.9872 6.13563 13.9954 6.29421 14.0651 6.44465C14.3809 7.11962 15.3654 7.11962 15.6853 6.44465C15.7468 6.32267 15.7509 6.00552 15.7427 3.4195L15.7304 0.536655L15.6074 0.361814C15.5417 0.268295 15.4023 0.146313 15.3038 0.0934544L15.1234 -6.48499e-05H7.89598H0.672696L0.459402 0.105654Z" fill="#AB326F"/>
<path d="M17.1247 6.13439C16.6817 6.33769 16.489 6.86222 16.6941 7.31355C16.7474 7.42333 16.9894 7.70389 17.3544 8.0739L17.9369 8.65535L15.3733 8.66755L12.8137 8.67975L12.6415 8.78953C12.4528 8.91558 12.2846 9.17174 12.2436 9.39944C12.178 9.75319 12.4036 10.1842 12.7317 10.3306C12.8876 10.3997 13.0598 10.4078 15.443 10.4078H17.9861L17.3626 11.0259C16.9812 11.4081 16.7146 11.7049 16.6735 11.7984C16.4972 12.2213 16.7023 12.7499 17.1206 12.9451C17.3175 13.0345 17.6949 13.0304 17.9 12.9288C18.0107 12.88 18.5686 12.3514 19.4874 11.4365C21.042 9.88737 21.0215 9.91583 20.9927 9.45637C20.9804 9.2612 20.9517 9.17174 20.8492 9.02537C20.7795 8.92371 20.1232 8.25281 19.393 7.53312C18.425 6.57353 18.0189 6.20351 17.8836 6.14252C17.6539 6.03681 17.3421 6.03274 17.1247 6.13439Z" fill="#AB326F"/>
</svg>
