<svg width="20" height="14" viewBox="0 0 20 14" fill="none" xmlns="http://www.w3.org/2000/svg">
<path d="M10 0.333496C5.45455 0.333496 1.57273 3.09794 0 7.00016C1.57273 10.9024 5.45455 13.6668 10 13.6668C14.5455 13.6668 18.4273 10.9024 20 7.00016C18.4273 3.09794 14.5455 0.333496 10 0.333496ZM10 11.4446C7.49091 11.4446 5.45455 9.4535 5.45455 7.00016C5.45455 4.54683 7.49091 2.55572 10 2.55572C12.5091 2.55572 14.5455 4.54683 14.5455 7.00016C14.5455 9.4535 12.5091 11.4446 10 11.4446ZM10 4.3335C8.49091 4.3335 7.27273 5.52461 7.27273 7.00016C7.27273 8.47572 8.49091 9.66683 10 9.66683C11.5091 9.66683 12.7273 8.47572 12.7273 7.00016C12.7273 5.52461 11.5091 4.3335 10 4.3335Z" fill="white"/>
</svg>
