<svg width="54" height="60" viewBox="0 0 54 60" fill="none" xmlns="http://www.w3.org/2000/svg">
<path d="M49.5 4.5L45 0L40.5 4.5L36 0L31.5 4.5L27 0L22.5 4.5L18 0L13.5 4.5L9 0V42H0V51C0 55.98 4.02 60 9 60H45C49.98 60 54 55.98 54 51V0L49.5 4.5ZM48 51C48 52.65 46.65 54 45 54C43.35 54 42 52.65 42 51V42H15V9H48V51Z" fill="#B0BBC7"/>
<path d="M36.0001 15H18.0001V21H36.0001V15Z" fill="#DBDBDB"/>
<path d="M44.9998 15H38.9998V21H44.9998V15Z" fill="#DBDBDB"/>
<path d="M36.0001 23.9998H18.0001V29.9998H36.0001V23.9998Z" fill="#DBDBDB"/>
<path d="M44.9998 23.9998H38.9998V29.9998H44.9998V23.9998Z" fill="#DBDBDB"/>
</svg>
