<svg width="22" height="22" viewBox="0 0 22 22" fill="none" xmlns="http://www.w3.org/2000/svg">
<path d="M10.4325 0.0494404C9.89946 0.225698 10.0026 0.126822 5.1319 4.98896C2.56971 7.54685 0.411628 9.73933 0.329948 9.8597C0.00322597 10.3455 -0.0913514 11.0849 0.0935044 11.6438C0.372938 12.4735 1.03498 12.9636 1.98505 13.0409L2.32467 13.071L2.33757 16.579C2.35047 20.0182 2.35476 20.0913 2.44074 20.3234C2.76317 21.1746 3.30054 21.6991 4.08725 21.9312C4.2893 21.9914 4.61173 22 6.3872 22C8.37333 22 8.45931 21.9957 8.59687 21.914C8.67426 21.8667 8.77313 21.7679 8.82042 21.6905C8.9021 21.5529 8.9064 21.4669 8.9064 18.8188C8.9064 16.9573 8.9236 16.033 8.95369 15.917C9.02677 15.659 9.22882 15.3968 9.45667 15.2635L9.65872 15.1431H11.0172H12.3757L12.5863 15.2721C12.8228 15.4183 13.0463 15.7493 13.0936 16.0115C13.1065 16.1018 13.1194 17.3786 13.1194 18.8532C13.1194 21.755 13.1108 21.6432 13.3558 21.871L13.4719 21.9785L15.5397 21.9914C16.924 22 17.6849 21.9871 17.8354 21.957C18.4286 21.8323 19.1165 21.3079 19.3873 20.7748C19.6882 20.1729 19.671 20.418 19.6882 16.5575L19.7011 13.0667L20.0536 13.0366C20.9177 12.9636 21.4852 12.5852 21.842 11.8544C21.9925 11.5363 21.9968 11.5234 21.9968 10.9946C21.9968 10.4616 21.9968 10.453 21.8334 10.1133C21.6701 9.76942 21.6658 9.76512 16.9541 5.05345C12.2381 0.337471 12.2381 0.337471 11.8942 0.17411C11.5675 0.0193462 11.5245 0.0107498 11.0774 0.00215149C10.7722 -0.00644684 10.5443 0.0107498 10.4325 0.0494404Z" fill="#AB326F"/>
</svg>
