<svg width="13" height="18" viewBox="0 0 13 18" fill="none" xmlns="http://www.w3.org/2000/svg">
<path d="M5.51467 0.0339413C4.49224 0.201553 3.65084 0.530071 2.83289 1.07648C1.43837 2.0084 0.469578 3.45656 0.114242 5.13267C0.0069709 5.6288 -0.0332558 6.62776 0.0304365 7.15071C0.214809 8.64245 0.999229 10.4594 2.29654 12.3936C2.88318 13.2652 3.80839 14.4586 4.55258 15.3067C4.97161 15.7793 5.84654 16.718 6.07785 16.9426C6.27563 17.1303 6.30915 17.1504 6.44324 17.1504C6.58403 17.1504 6.59409 17.1437 7.02988 16.7012C8.65906 15.0351 10.2011 13.0808 11.1699 11.455C12.0951 9.90288 12.6415 8.51842 12.8259 7.26133C12.9063 6.69146 12.8762 5.68244 12.7588 5.13267C12.2191 2.58163 10.2815 0.644047 7.72714 0.100986C7.37516 0.0238838 7.22766 0.0104752 6.55386 0.00377083C6.02421 -0.00628471 5.69905 0.00377083 5.51467 0.0339413ZM7.17402 3.59065C7.50589 3.67446 8.03219 3.94263 8.29702 4.16723C9.61109 5.27347 9.71836 7.21775 8.53503 8.46143C7.67015 9.36988 6.21529 9.60789 5.10235 9.02125C4.33469 8.61563 3.78493 7.91502 3.58714 7.09372C3.49663 6.70486 3.49663 6.14169 3.58714 5.75283C3.73129 5.15614 4.10674 4.55609 4.58611 4.15718C4.84088 3.94598 5.37723 3.6711 5.69905 3.5873C6.13819 3.47332 6.72483 3.47332 7.17402 3.59065Z" fill="#939393"/>
</svg>
