<svg width="124" height="124" viewBox="0 0 124 124" fill="none" xmlns="http://www.w3.org/2000/svg">
<circle cx="62" cy="62" r="62" fill="#B3BBC2"/>
<circle cx="62" cy="62" r="51" fill="#71808D"/>
<path d="M47.2221 55.4472C46.2983 55.7876 45.4322 56.2466 44.6362 56.8198C43.834 57.3952 43.1242 58.0694 42.5045 58.8364C41.8909 59.601 41.3876 60.437 40.9922 61.3381C40.599 62.2454 40.3378 63.188 40.2001 64.1621C40.0624 65.1361 40.0576 66.1101 40.188 67.0903C40.3161 68.0644 40.5719 69.0053 40.9554 69.9132C41.3389 70.8211 41.8388 71.6651 42.4505 72.433C43.0644 73.207 43.7666 73.8785 44.5614 74.46L44.537 79.652L49.891 76.4901C50.7055 76.5746 51.5214 76.5678 52.3385 76.4695C53.1472 76.3674 53.9449 76.1783 54.7109 75.9031C55.4807 75.6194 56.2148 75.258 56.9049 74.8148C57.5949 74.3717 58.2224 73.8537 58.7981 73.2709C59.3714 72.6819 59.8683 72.0371 60.2971 71.3405C60.7236 70.6378 61.0681 69.9023 61.3345 69.1256C61.5925 68.3451 61.7607 67.5487 61.8452 66.7341C61.9214 65.9157 61.9145 65.0998 61.8124 64.2911C61.7079 63.4762 61.515 62.687 61.2314 61.9172C60.9539 61.1451 60.5862 60.4132 60.1369 59.7254C59.6961 59.0415 59.1758 58.4078 58.5891 57.8406C57.9939 57.2695 57.3492 56.7727 56.6526 56.3439C55.9521 55.9235 55.2105 55.5813 54.4299 55.3233C53.6494 55.0653 52.853 54.8972 52.0407 54.8188C51.2222 54.7426 50.4086 54.7556 49.5938 54.8601C48.7812 54.9706 47.9919 55.1636 47.2221 55.4472Z" fill="white"/>
<path d="M53.1809 59.3129L53.1809 59.3129L53.1815 59.3181C53.3538 60.6977 53.7075 62.0337 54.2315 63.3198L54.2315 63.3198L54.2342 63.3262C54.7703 64.6248 55.4725 65.8219 56.3249 66.9203C57.1806 68.0229 58.1693 68.992 59.2962 69.8279C60.4139 70.6593 61.6251 71.3286 62.9265 71.8344L63.4699 70.4363L62.9265 71.8344C64.2284 72.3404 65.5831 72.6661 66.9719 72.8023C68.1057 72.9157 69.2283 72.9028 70.3462 72.7683L73.3083 75.6698C74.6947 77.0279 77.0324 76.3571 77.4879 74.4706L78.8308 68.9087C79.569 68.2489 80.24 67.5222 80.8433 66.7298L80.8433 66.7298L80.8487 66.7227C81.5405 65.8027 82.1349 64.8064 82.6115 63.7544L82.6116 63.7544L82.6165 63.7434C83.0847 62.6872 83.4415 61.5861 83.6722 60.4453C83.904 59.2989 83.9955 58.1492 83.9711 56.9987L83.9711 56.9987L83.9708 56.9879C83.9376 55.8204 83.7718 54.6791 83.4881 53.5618L83.4881 53.5618L83.4857 53.5527C83.1931 52.4298 82.7861 51.3561 82.261 50.3224L82.2533 50.3074C81.7146 49.2757 81.0718 48.321 80.3311 47.4362L80.3208 47.424C79.571 46.5475 78.7361 45.7495 77.8075 45.0513L77.8054 45.0497C76.8749 44.3527 75.8815 43.7694 74.8192 43.2979C73.7551 42.8164 72.6456 42.4678 71.505 42.246C70.3717 42.0193 69.2118 41.9231 68.0539 41.9601L68.0483 41.9603C66.8848 42.0018 65.7472 42.1666 64.6296 42.4504L64.6132 42.4546C63.4971 42.7514 62.4172 43.1677 61.3837 43.7073C60.3522 44.2459 59.3943 44.8904 58.512 45.6399L58.512 45.6399L58.508 45.6432C57.6253 46.3984 56.8358 47.2383 56.138 48.1697L56.138 48.1697L56.131 48.1791C55.4458 49.1089 54.8633 50.1005 54.3915 51.1648C53.8261 52.4399 53.4373 53.7757 53.234 55.1538C53.0272 56.5401 53.0129 57.9289 53.1809 59.3129Z" fill="white" stroke="#717F8C" stroke-width="3" stroke-linecap="round" stroke-linejoin="round"/>
</svg>
