<svg width="124" height="124" viewBox="0 0 124 124" fill="none" xmlns="http://www.w3.org/2000/svg">
<circle cx="62" cy="62" r="62" fill="#B3BBC2"/>
<circle cx="62" cy="62" r="51" fill="#71808D"/>
<path d="M48.7994 81C47.7321 81 46.8321 80.6352 46.0993 79.9056C45.3664 79.1776 45 78.2836 45 77.2234V51.197C45 50.1368 45.3664 49.2427 46.0993 48.5147C46.8321 47.7852 47.7321 47.4204 48.7994 47.4204H51.1995V44.5903C51.1995 44.1595 51.3499 43.7868 51.6507 43.4721C51.9499 43.1574 52.3331 43 52.8004 43C53.266 43 53.6572 43.1661 53.974 43.4983C54.2908 43.8289 54.4492 44.2096 54.4492 44.6404V47.4204H69.6012V44.5402C69.6012 44.1428 69.7596 43.7868 70.0764 43.4721C70.3916 43.1574 70.766 43 71.1996 43C71.6333 43 72.0085 43.1661 72.3253 43.4983C72.6421 43.8289 72.8005 44.1929 72.8005 44.5903V47.4204H75.2006C76.2679 47.4204 77.1679 47.7852 77.9007 48.5147C78.6336 49.2427 79 50.1368 79 51.197V77.2234C79 78.2836 78.6336 79.1776 77.9007 79.9056C77.1679 80.6352 76.2679 81 75.2006 81H48.7994ZM48.7994 77.8194H75.2006C75.367 77.8194 75.5086 77.7614 75.6254 77.6454C75.7422 77.5309 75.8006 77.3903 75.8006 77.2234V58.8457H48.1994V77.2234C48.1994 77.3903 48.2578 77.5309 48.3746 77.6454C48.4914 77.7614 48.633 77.8194 48.7994 77.8194ZM48.1994 55.6675H75.8006V51.197C75.8006 51.0301 75.7422 50.8894 75.6254 50.775C75.5086 50.659 75.367 50.601 75.2006 50.601H48.7994C48.633 50.601 48.4914 50.659 48.3746 50.775C48.2578 50.8894 48.1994 51.0301 48.1994 51.197V55.6675Z" fill="white"/>
<rect x="47" y="50" width="30" height="6" fill="white"/>
<rect x="61.7998" y="56" width="14" height="3" fill="#73818E"/>
<rect x="48.1997" y="56" width="14" height="3" fill="#73818E"/>
</svg>
