<svg width="124" height="124" viewBox="0 0 124 124" fill="none" xmlns="http://www.w3.org/2000/svg">
<circle cx="62" cy="62" r="62" fill="#B3BBC2"/>
<circle cx="62" cy="62" r="51" fill="#71808D"/>
<path d="M78.3333 65.5685V57.5C78.3333 50.2617 73.235 44.1642 66.3283 42.3305C65.6447 40.67 63.974 39.5 62 39.5C60.026 39.5 58.3553 40.67 57.6717 42.3305C50.765 44.1665 45.6667 50.2617 45.6667 57.5V65.5685L41.6837 69.4092C41.4666 69.6178 41.2944 69.8658 41.1771 70.1388C41.0597 70.4118 40.9996 70.7045 41 71V75.5C41 76.0967 41.2458 76.669 41.6834 77.091C42.121 77.5129 42.7145 77.75 43.3333 77.75H80.6667C81.2855 77.75 81.879 77.5129 82.3166 77.091C82.7542 76.669 83 76.0967 83 75.5V71C83.0004 70.7045 82.9403 70.4118 82.8229 70.1388C82.7056 69.8658 82.5334 69.6178 82.3163 69.4092L78.3333 65.5685ZM78.3333 73.25H45.6667V71.9315L49.6497 68.0907C49.8668 67.8822 50.0389 67.6342 50.1563 67.3612C50.2736 67.0882 50.3338 66.7955 50.3333 66.5V57.5C50.3333 51.2967 55.567 46.25 62 46.25C68.433 46.25 73.6667 51.2967 73.6667 57.5V66.5C73.6667 67.0985 73.9117 67.67 74.3503 68.0907L78.3333 71.9315V73.25ZM62 84.5C63.445 84.5017 64.8547 84.0693 66.0331 83.2629C67.2116 82.4564 68.1001 81.3159 68.5753 80H55.4247C55.8999 81.3159 56.7884 82.4564 57.9669 83.2629C59.1453 84.0693 60.555 84.5017 62 84.5V84.5Z" fill="white"/>
</svg>
