<svg width="137" height="137" viewBox="0 0 137 137" fill="none" xmlns="http://www.w3.org/2000/svg">
<circle cx="68.5" cy="68.5" r="68.5" fill="#B3BBC2"/>
<circle cx="68.3468" cy="68.3468" r="56.3468" fill="#71808D"/>
<path d="M45.4287 58.6225C45.2055 57.3948 46.1486 56.2647 47.3964 56.2647H61.3548C62.2567 56.2647 63.047 56.8684 63.2843 57.7385L64.5588 62.4118H88.373C89.6386 62.4118 90.586 63.5726 90.3324 64.8126L86.1212 85.4008C85.9308 86.3316 85.1118 87 84.1617 87H52.2573C51.2908 87 50.4625 86.3088 50.2896 85.3578L45.4287 58.6225Z" fill="white"/>
<path d="M45.5588 50.9381C45.5588 49.872 46.4231 49.0077 47.4892 49.0077H82.9905C85.79 48.9353 86.9259 49.3685 87.6436 50.477C87.942 50.9379 88.0294 51.4972 88.0294 52.0463V57.4389C88.0294 58.404 87.7259 59.4276 86.8605 59.8548C85.8816 60.3381 84.7822 60.2768 83.8339 59.671C83.2239 59.2813 82.9905 58.5369 82.9905 57.8131V52.8685H47.4892C46.4231 52.8685 45.5588 52.0042 45.5588 50.9381Z" fill="white"/>
</svg>
