<svg width="21" height="23" viewBox="0 0 21 23" fill="none" xmlns="http://www.w3.org/2000/svg">
<path d="M18.6667 13.3239V9.2C18.6667 5.50045 16.1175 2.38395 12.6642 1.4467C12.3223 0.598 11.487 0 10.5 0C9.513 0 8.67767 0.598 8.33583 1.4467C4.8825 2.3851 2.33333 5.50045 2.33333 9.2V13.3239L0.341834 15.2869C0.233285 15.3936 0.147199 15.5203 0.0885329 15.6598C0.0298668 15.7994 -0.000221024 15.949 1.22229e-06 16.1V18.4C1.22229e-06 18.705 0.122917 18.9975 0.34171 19.2132C0.560502 19.4288 0.857249 19.55 1.16667 19.55H19.8333C20.1428 19.55 20.4395 19.4288 20.6583 19.2132C20.8771 18.9975 21 18.705 21 18.4V16.1C21.0002 15.949 20.9701 15.7994 20.9115 15.6598C20.8528 15.5203 20.7667 15.3936 20.6582 15.2869L18.6667 13.3239ZM18.6667 17.25H2.33333V16.5761L4.32483 14.613C4.43338 14.5064 4.51947 14.3797 4.57814 14.2402C4.6368 14.1006 4.66689 13.951 4.66667 13.8V9.2C4.66667 6.02945 7.2835 3.45 10.5 3.45C13.7165 3.45 16.3333 6.02945 16.3333 9.2V13.8C16.3333 14.1059 16.4558 14.398 16.6752 14.613L18.6667 16.5761V17.25ZM10.5 23C11.2225 23.0009 11.9274 22.7799 12.5166 22.3677C13.1058 21.9555 13.5501 21.3726 13.7877 20.7H7.21233C7.44994 21.3726 7.89422 21.9555 8.48343 22.3677C9.07263 22.7799 9.77748 23.0009 10.5 23Z" fill="#343434"/>
</svg>
