<svg width="80" height="80" viewBox="0 0 80 80" fill="none" xmlns="http://www.w3.org/2000/svg">
<mask id="mask0_168_194" style="mask-type:alpha" maskUnits="userSpaceOnUse" x="0" y="0" width="80" height="80">
<rect width="80" height="80" fill="#D9D9D9"/>
</mask>
<g mask="url(#mask0_168_194)">
<path d="M40.0003 40.0011C36.3336 40.0011 33.1947 38.6956 30.5836 36.0845C27.9725 33.4734 26.667 30.3345 26.667 26.6678C26.667 23.0011 27.9725 19.8623 30.5836 17.2511C33.1947 14.64 36.3336 13.3345 40.0003 13.3345C43.667 13.3345 46.8058 14.64 49.417 17.2511C52.0281 19.8623 53.3336 23.0011 53.3336 26.6678C53.3336 30.3345 52.0281 33.4734 49.417 36.0845C46.8058 38.6956 43.667 40.0011 40.0003 40.0011ZM13.3336 66.6678V57.3345C13.3336 55.4456 13.8203 53.7089 14.7936 52.1245C15.7647 50.5422 17.0558 49.3345 18.667 48.5011C22.1114 46.7789 25.6114 45.4867 29.167 44.6245C32.7225 43.7645 36.3336 43.3345 40.0003 43.3345C43.667 43.3345 47.2781 43.7645 50.8336 44.6245C54.3892 45.4867 57.8892 46.7789 61.3336 48.5011C62.9447 49.3345 64.2358 50.5422 65.2069 52.1245C66.1803 53.7089 66.6669 55.4456 66.6669 57.3345V66.6678H13.3336ZM20.0003 60.0011H60.0003V57.3345C60.0003 56.7234 59.8481 56.1678 59.5436 55.6678C59.2369 55.1678 58.8336 54.7789 58.3336 54.5011C55.3336 53.0011 52.3058 51.8756 49.2503 51.1245C46.1947 50.3756 43.1114 50.0011 40.0003 50.0011C36.8892 50.0011 33.8058 50.3756 30.7503 51.1245C27.6947 51.8756 24.667 53.0011 21.667 54.5011C21.167 54.7789 20.7647 55.1678 20.4603 55.6678C20.1536 56.1678 20.0003 56.7234 20.0003 57.3345V60.0011ZM40.0003 33.3345C41.8336 33.3345 43.4036 32.6811 44.7103 31.3745C46.0147 30.07 46.6669 28.5011 46.6669 26.6678C46.6669 24.8345 46.0147 23.2656 44.7103 21.9611C43.4036 20.6545 41.8336 20.0011 40.0003 20.0011C38.167 20.0011 36.5981 20.6545 35.2936 21.9611C33.9869 23.2656 33.3336 24.8345 33.3336 26.6678C33.3336 28.5011 33.9869 30.07 35.2936 31.3745C36.5981 32.6811 38.167 33.3345 40.0003 33.3345Z" fill="#0D8699"/>
</g>
</svg>
