<svg width="20" height="20" viewBox="0 0 20 20" fill="none" xmlns="http://www.w3.org/2000/svg">
<path d="M8.50467 0.750683C8.43542 0.794432 8.34794 0.889223 8.30785 0.958494C8.23495 1.07881 8.23131 1.15537 8.22037 2.05589L8.20944 3.02933L7.73562 3.18245C7.47684 3.26631 7.04311 3.44495 6.77339 3.57985L6.28135 3.82047L5.69089 3.2262C5.36286 2.89808 5.05305 2.60641 4.99838 2.57725C4.88175 2.51527 4.61568 2.51162 4.46989 2.56631C4.33868 2.6137 2.50899 4.43662 2.4361 4.58975C2.37413 4.72464 2.3632 4.95797 2.41787 5.10016C2.43974 5.15485 2.73497 5.47933 3.07029 5.82204L3.68261 6.44547L3.45299 6.91943C3.32542 7.17829 3.15047 7.61214 3.06664 7.87464L2.90992 8.35954H2.05339C1.58322 8.35954 1.13855 8.37777 1.06201 8.396C0.985471 8.41787 0.876127 8.49443 0.799586 8.57829L0.668374 8.72412V10.1897C0.668374 12.1585 0.562675 12.0127 2.0133 12.0418L2.97188 12.0601L3.10309 12.4611C3.17599 12.6798 3.35458 13.0918 3.49308 13.3726L3.75186 13.883L3.07029 14.5757C2.06068 15.6002 2.04246 15.4689 3.37645 16.8106C3.92317 17.3611 4.40793 17.8241 4.45895 17.846C4.58288 17.8934 4.83437 17.8897 4.94006 17.8387C4.9838 17.8132 5.33006 17.4924 5.70183 17.1205L6.3834 16.446L6.8062 16.6502C7.03946 16.7632 7.4331 16.9236 7.68095 17.0075L8.13654 17.1569L8.14748 18.0356C8.15841 18.845 8.1657 18.9252 8.23495 19.0418C8.27505 19.1111 8.36252 19.2059 8.43177 19.2496C8.55205 19.3335 8.55934 19.3335 9.98081 19.3335C11.4023 19.3335 11.4096 19.3335 11.5298 19.2496C11.8032 19.0674 11.8032 19.0637 11.8141 18.0647L11.8251 17.1642L12.2515 17.0257C12.4848 16.9528 12.8966 16.7851 13.1664 16.6538L13.6584 16.4132L14.3509 17.1059C15.1892 17.9408 15.3131 18.0064 15.6667 17.8424C15.8453 17.7585 17.6677 15.9392 17.7223 15.7861C17.7734 15.6549 17.7734 15.4653 17.7223 15.334C17.7005 15.2793 17.3688 14.9111 16.9788 14.521L16.2754 13.8101L16.5232 13.3106C16.6581 13.0335 16.8257 12.6361 16.895 12.4283L17.0152 12.0455L17.9811 12.0345C19.0527 12.0236 19.0818 12.0163 19.2495 11.7684L19.3333 11.6517L19.3224 10.1715L19.3115 8.69131L19.1839 8.56006C19.1146 8.49079 19.0017 8.41422 18.9288 8.396C18.8595 8.37777 18.4112 8.35954 17.9337 8.35954C17.2704 8.35954 17.0663 8.3486 17.0553 8.31214C16.9533 7.92933 16.7054 7.2585 16.5414 6.91943L16.3373 6.48922L17.0626 5.75641C18.1233 4.69183 18.1378 4.82308 16.8039 3.47777C16.279 2.94912 15.7979 2.49704 15.7323 2.46787C15.5828 2.40224 15.386 2.40224 15.2366 2.46787C15.171 2.49704 14.8211 2.82152 14.453 3.18974L13.786 3.86058L13.2684 3.60537C12.9841 3.45954 12.5577 3.28089 12.3244 3.20433L11.8943 3.06214V2.09599C11.8943 1.20277 11.887 1.11526 11.8214 0.976725C11.774 0.881933 11.6975 0.798079 11.6064 0.747036C11.4679 0.666828 11.4387 0.666828 10.0464 0.666828C8.63224 0.666828 8.62495 0.666828 8.50467 0.750683ZM10.9868 5.53037C12.3353 5.83662 13.4689 6.72256 14.0848 7.95485C14.442 8.66943 14.4566 8.95745 14.1541 9.20902C13.8406 9.47516 13.4033 9.30381 13.2611 8.86266C12.9987 8.05329 12.3244 7.2986 11.5116 6.9012C10.0282 6.17204 8.26411 6.58037 7.23264 7.88558L7.07591 8.08245L7.23993 8.12985C7.41123 8.18089 7.58254 8.32308 7.63356 8.46162C7.73926 8.73506 7.60805 9.05954 7.34927 9.17256C7.09778 9.28193 6.16107 9.49704 6.01892 9.47881C5.79659 9.44964 5.68725 9.33662 5.32641 8.77152C5.01661 8.27568 4.98745 8.21735 4.98745 8.04964C4.98745 7.81631 5.10044 7.6486 5.32641 7.55016C5.51959 7.46266 5.66538 7.48089 5.8622 7.61579C5.93874 7.66683 6.0007 7.70329 6.00799 7.696C6.01163 7.6887 6.08453 7.58297 6.16471 7.45902C6.85722 6.42725 8.05636 5.65433 9.23363 5.48297C9.38306 5.4611 9.54708 5.43558 9.5981 5.42829C9.82408 5.38818 10.6186 5.44652 10.9868 5.53037ZM14.2197 10.609C14.2744 10.6491 14.4748 10.9262 14.6644 11.2252C14.9851 11.7246 15.0106 11.7793 15.0106 11.9507C15.0106 12.184 14.8976 12.3517 14.6716 12.4502C14.4785 12.5377 14.3327 12.5194 14.1322 12.3845C14.001 12.2934 13.9901 12.2934 13.9536 12.3517C13.8333 12.5632 13.4543 13.0408 13.2538 13.2377C12.5905 13.8903 11.6756 14.3606 10.7644 14.5246C10.338 14.6012 9.54343 14.583 9.09148 14.4882C8.44271 14.3496 7.81216 14.0689 7.26544 13.6715C6.97021 13.4564 6.47088 12.9387 6.25219 12.6179C5.91322 12.122 5.62529 11.4767 5.62529 11.2142C5.62529 10.8606 6.0007 10.5835 6.33237 10.6929C6.52555 10.7548 6.66769 10.9189 6.75152 11.1778C7.01395 11.9653 7.68824 12.7127 8.48644 13.0991C9.04045 13.3689 9.39035 13.4455 10.0355 13.4418C10.615 13.4382 10.892 13.3835 11.395 13.172C11.8943 12.9642 12.4994 12.4866 12.8237 12.0418L12.9149 11.9179L12.7764 11.8778C12.5795 11.8158 12.4556 11.7246 12.39 11.5861C12.2624 11.3163 12.3572 10.9772 12.5978 10.8496C12.6634 10.8168 12.9513 10.7293 13.2429 10.6528C13.8297 10.4996 14.0593 10.4887 14.2197 10.609Z" fill="white"/>
</svg>
