<svg width="18" height="18" viewBox="0 0 18 18" fill="none" xmlns="http://www.w3.org/2000/svg">
<path d="M0.644401 0.0299464C0.425389 0.0973347 0.231647 0.248958 0.113718 0.4427C0.0210588 0.602747 0 0.691194 0 0.914418C0 1.27242 0.1432 1.53355 0.433812 1.70202L0.631765 1.81995H6.29659C12.5511 1.81995 12.0541 1.84101 12.3363 1.56303C12.53 1.36929 12.589 1.21345 12.5932 0.914418C12.5932 0.556417 12.45 0.295288 12.1594 0.126817L11.9614 0.00888765L6.35977 0.000464082C3.28097 -0.0037477 0.707577 0.00888765 0.644401 0.0299464Z" fill="#AB326F"/>
<path d="M14.1218 0.0262814C13.8986 0.0978813 13.7091 0.249506 13.5911 0.443247L13.4774 0.641199L13.4648 7.73382L13.4563 14.8264L12.833 14.2157C12.1423 13.5376 11.9822 13.4408 11.6074 13.4745C11.0009 13.5334 10.6134 14.1526 10.824 14.7211C10.8872 14.8854 11.1272 15.1507 12.315 16.3427C13.0941 17.1261 13.8143 17.821 13.9196 17.88C14.1892 18.04 14.5767 18.04 14.8462 17.88C14.9515 17.821 15.6717 17.1261 16.4509 16.3427C17.6386 15.1507 17.8787 14.8854 17.9419 14.7211C18.1525 14.1526 17.765 13.5334 17.1585 13.4745C16.7836 13.4408 16.6236 13.5376 15.9329 14.2157L15.3095 14.8264L15.3011 7.73382L15.2885 0.641199L15.1705 0.443247C15.0231 0.19054 14.762 0.0304928 14.4587 0.00943565C14.3366 -0.00320053 14.185 0.00943565 14.1218 0.0262814Z" fill="#AB326F"/>
<path d="M0.6444 5.42142C0.425389 5.48881 0.231647 5.64044 0.113718 5.83418C0.0210588 5.99422 0 6.08267 0 6.3059C0 6.6639 0.1432 6.92503 0.433812 7.0935L0.631765 7.21143H5.39106H10.1504L10.3399 7.10613C10.441 7.04717 10.5842 6.9166 10.6558 6.81973C10.7695 6.65126 10.7821 6.60493 10.7821 6.3059C10.7821 6.00686 10.7695 5.96053 10.6558 5.79206C10.5842 5.69519 10.441 5.56462 10.3399 5.50566L10.1504 5.40037L5.45424 5.39194C2.87243 5.38773 0.707577 5.40037 0.6444 5.42142Z" fill="#AB326F"/>
<path d="M0.644401 10.813C0.425389 10.8804 0.231647 11.032 0.113718 11.2258C0.0210588 11.3858 0 11.4743 0 11.6975C0 12.0555 0.1432 12.3166 0.433812 12.4851L0.631765 12.603L4.4013 12.6157C7.12631 12.6241 8.21716 12.6157 8.34351 12.5778C8.73942 12.4725 8.99212 12.1271 8.99212 11.6975C8.99212 11.4111 8.90368 11.2005 8.70994 11.0152C8.4446 10.7625 8.57516 10.7709 4.48974 10.7751C2.43861 10.7751 0.707577 10.792 0.644401 10.813Z" fill="#AB326F"/>
<path d="M0.6444 16.2034C0.425389 16.2708 0.231647 16.4225 0.113718 16.6162C0.0210588 16.7762 0 16.8647 0 17.0879C0 17.4459 0.1432 17.707 0.433812 17.8755L0.631765 17.9935H3.60106C6.86939 17.9935 6.67144 18.0103 6.9452 17.7365C7.13895 17.5428 7.19791 17.387 7.20212 17.0879C7.20212 16.7299 7.05892 16.4688 6.76831 16.3003L6.57036 16.1824L3.66424 16.174C2.06798 16.1698 0.707577 16.1824 0.6444 16.2034Z" fill="#AB326F"/>
</svg>
