<svg width="18" height="18" viewBox="0 0 18 18" fill="none" xmlns="http://www.w3.org/2000/svg">
<path d="M0.644401 17.9701C0.425389 17.9027 0.231647 17.751 0.113718 17.5573C0.0210588 17.3973 0 17.3088 0 17.0856C0 16.7276 0.1432 16.4665 0.433812 16.298L0.631765 16.1801H6.29659C12.5511 16.1801 12.0541 16.159 12.3363 16.437C12.53 16.6307 12.589 16.7865 12.5932 17.0856C12.5932 17.4436 12.45 17.7047 12.1594 17.8732L11.9614 17.9911L6.35977 17.9995C3.28097 18.0037 0.707577 17.9911 0.644401 17.9701Z" fill="#AB326F"/>
<path d="M14.1219 17.9737C13.8987 17.9021 13.7091 17.7505 13.5912 17.5568L13.4775 17.3588L13.4649 10.2662L13.4564 3.17357L12.8331 3.78427C12.1424 4.46237 11.9823 4.55924 11.6075 4.52554C11.001 4.46658 10.6135 3.84745 10.8241 3.27886C10.8873 3.1146 11.1273 2.84926 12.315 1.65733C13.0942 0.873942 13.8144 0.179 13.9197 0.120035C14.1893 -0.0400118 14.5768 -0.0400118 14.8463 0.120035C14.9516 0.179 15.6718 0.873942 16.451 1.65733C17.6387 2.84926 17.8788 3.1146 17.942 3.27886C18.1526 3.84745 17.7651 4.46658 17.1586 4.52554C16.7837 4.55924 16.6237 4.46237 15.933 3.78427L15.3096 3.17357L15.3012 10.2662L15.2886 17.3588L15.1706 17.5568C15.0232 17.8095 14.7621 17.9695 14.4588 17.9906C14.3367 18.0032 14.1851 17.9906 14.1219 17.9737Z" fill="#AB326F"/>
<path d="M0.6444 12.5786C0.425389 12.5112 0.231647 12.3596 0.113718 12.1658C0.0210588 12.0058 0 11.9173 0 11.6941C0 11.3361 0.1432 11.075 0.433812 10.9065L0.631765 10.7886H5.39106H10.1504L10.3399 10.8939C10.441 10.9528 10.5842 11.0834 10.6558 11.1803C10.7695 11.3487 10.7821 11.3951 10.7821 11.6941C10.7821 11.9931 10.7695 12.0395 10.6558 12.2079C10.5842 12.3048 10.441 12.4354 10.3399 12.4943L10.1504 12.5996L5.45424 12.6081C2.87243 12.6123 0.707577 12.5996 0.6444 12.5786Z" fill="#AB326F"/>
<path d="M0.644401 7.18697C0.425389 7.11958 0.231647 6.96796 0.113718 6.77422C0.0210588 6.61417 0 6.52572 0 6.3025C0 5.9445 0.1432 5.68337 0.433812 5.5149L0.631765 5.39697L4.4013 5.38433C7.12631 5.37591 8.21716 5.38433 8.34351 5.42224C8.73942 5.52753 8.99212 5.8729 8.99212 6.3025C8.99212 6.5889 8.90368 6.79949 8.70994 6.9848C8.4446 7.23751 8.57516 7.22909 4.48974 7.22488C2.43861 7.22488 0.707577 7.20803 0.644401 7.18697Z" fill="#AB326F"/>
<path d="M0.6444 1.79655C0.425389 1.72916 0.231647 1.57754 0.113718 1.3838C0.0210588 1.22375 0 1.1353 0 0.91208C0 0.55408 0.1432 0.29295 0.433812 0.124479L0.631765 0.00654999H3.60106C6.86939 0.00654999 6.67144 -0.0102971 6.9452 0.263468C7.13895 0.457209 7.19791 0.613045 7.20212 0.91208C7.20212 1.27008 7.05892 1.53121 6.76831 1.69968L6.57036 1.81761L3.66424 1.82603C2.06798 1.83025 0.707577 1.81761 0.6444 1.79655Z" fill="#AB326F"/>
</svg>
