<svg width="18" height="17" viewBox="0 0 18 17" fill="none" xmlns="http://www.w3.org/2000/svg">
<path d="M1.00642 0.0627766C0.561338 0.22221 0.219221 0.567649 0.063109 1.01938C0.00332153 1.19542 0 1.3781 0 7.00477C0 12.6314 0.00332153 12.8141 0.063109 12.9902C0.219221 13.4485 0.564659 13.794 1.01971 13.9501C1.19907 14.0099 1.33193 14.0132 5.29783 14.0132H9.38663L9.46967 13.9069C9.60253 13.7309 9.6291 13.6711 9.63242 13.5581C9.63242 13.412 8.15102 1.42128 8.1012 1.1921C7.98827 0.650687 7.57972 0.205603 7.0516 0.0461693C6.91542 0.00298977 6.44708 -0.00365353 4.03565 -0.000331879C1.33857 -0.000331879 1.16918 0.00631142 1.00642 0.0627766ZM5.2314 3.6301C5.34766 3.70649 5.40412 3.7696 5.45062 3.88253C5.50709 4.01207 6.47697 8.89803 6.47697 9.04418C6.47697 9.20029 6.37401 9.37966 6.24447 9.44609C6.01528 9.56234 5.69309 9.46934 5.59677 9.25676C5.56688 9.19697 5.47387 8.78842 5.38751 8.34998L5.22808 7.55282H4.50067H3.77325L3.61382 8.34998C3.52746 8.78842 3.43446 9.19697 3.40456 9.25676C3.30824 9.46934 2.98605 9.56234 2.75687 9.44609C2.62733 9.37966 2.52436 9.20029 2.52436 9.04418C2.52436 8.908 3.49092 4.02536 3.54739 3.88253C3.59389 3.76628 3.74668 3.62013 3.84965 3.59688C3.89615 3.58692 3.95262 3.57363 3.96922 3.56366C3.98915 3.55702 4.2582 3.55702 4.5671 3.56034C5.062 3.56699 5.14836 3.57363 5.2314 3.6301Z" fill="#939393"/>
<path d="M4.36782 4.58601C4.35121 4.63915 3.98584 6.47928 3.98584 6.51249C3.98584 6.5291 4.21835 6.53906 4.50068 6.53906C4.89262 6.53906 5.01551 6.5291 5.01551 6.49588C5.01219 6.47595 4.92583 6.03087 4.82286 5.50939L4.63022 4.56276L4.50732 4.55279C4.4276 4.54615 4.37778 4.55611 4.36782 4.58601Z" fill="#939393"/>
<path d="M9.31667 3.1248C9.36981 3.44367 10.5955 13.3684 10.5955 13.4946C10.5955 13.7271 10.5323 13.9762 10.4194 14.1921C10.3497 14.3217 9.91787 14.8431 9.18049 15.6868L8.04453 16.9855L11.9174 16.9955C15.4216 17.0021 15.8069 16.9988 15.9597 16.949C16.4214 16.7995 16.7835 16.4441 16.9429 15.9824C17.006 15.7997 17.006 15.6569 17.006 10.0269C17.006 4.45673 17.0027 4.2508 16.9429 4.07476C16.8466 3.79243 16.7801 3.68282 16.5676 3.46359C16.4281 3.31745 16.3052 3.22777 16.1324 3.14805L15.8933 3.03512L12.595 3.02515L9.29674 3.01851L9.31667 3.1248ZM13.7243 6.62901C13.8971 6.73198 13.9568 6.8748 13.9768 7.22024L13.9934 7.52914L14.8105 7.54243C15.5578 7.55239 15.6375 7.55904 15.7372 7.61882C15.89 7.71183 15.9763 7.86129 15.9763 8.03734C15.9763 8.29309 15.797 8.47578 15.5113 8.51563L15.3585 8.53556L15.2655 8.79132C15.0463 9.3892 14.7141 9.99039 14.3322 10.4753L14.1495 10.7078L14.289 10.8374C14.3687 10.9071 14.651 11.1363 14.9168 11.3423C15.1825 11.5482 15.4183 11.7574 15.4382 11.8039C15.5412 12.0265 15.4482 12.3321 15.2489 12.435C15.1327 12.4948 14.9068 12.5015 14.8072 12.4483C14.7208 12.4018 14.0997 11.9202 13.7542 11.6312C13.6147 11.515 13.4918 11.422 13.4819 11.422C13.4719 11.422 13.3424 11.5249 13.1995 11.6478C12.8242 11.97 12.2861 12.4018 12.1998 12.445C12.0968 12.5015 11.8709 12.4948 11.7547 12.435C11.5554 12.3321 11.4624 12.0265 11.5653 11.8039C11.5853 11.7574 11.8078 11.5548 12.0536 11.3555C12.3027 11.1596 12.5784 10.9304 12.6648 10.8507L12.8242 10.7078L12.6548 10.4919C12.326 10.0768 11.9241 9.33605 11.7347 8.79796L11.6417 8.53556L11.4889 8.51563C11.2066 8.47578 11.0273 8.29309 11.0273 8.03734C11.0273 7.86129 11.1136 7.71183 11.2664 7.61882C11.3661 7.55904 11.4458 7.55239 12.1765 7.54243L12.977 7.52914L12.9936 7.22024C13.0135 6.87812 13.0667 6.7519 13.2394 6.63565C13.3623 6.55593 13.5915 6.55261 13.7243 6.62901Z" fill="#939393"/>
<path d="M12.6548 8.54652C12.6548 8.57642 12.771 8.8355 12.8939 9.08129C13.0534 9.40015 13.4486 10.0014 13.4918 9.98806C13.5616 9.96481 13.9668 9.34701 14.1495 8.98164C14.2591 8.76242 14.3488 8.56977 14.3488 8.55649C14.3488 8.5432 13.9668 8.53324 13.5018 8.53324C13.0368 8.53324 12.6548 8.53988 12.6548 8.54652Z" fill="#939393"/>
<path d="M5.8125 15.0532C5.8125 15.0764 5.83575 15.2757 5.86232 15.4916C5.92875 15.9898 6.05497 16.2855 6.32069 16.5512C6.47348 16.704 6.76578 16.8966 6.78903 16.8634C6.79567 16.8568 7.17433 16.4383 7.63602 15.9301L8.47304 15.01H7.14111C6.07822 15.01 5.8125 15.02 5.8125 15.0532Z" fill="#939393"/>
</svg>
